<?xml version="1.0" standalone="no"?><!DOCTYPE svg PUBLIC "-//W3C//DTD SVG 1.1//EN" "http://www.w3.org/Graphics/SVG/1.1/DTD/svg11.dtd"><svg t="1673861997977" class="icon" viewBox="0 0 1024 1024" version="1.1" xmlns="http://www.w3.org/2000/svg" p-id="55870" width="256" height="256" data-spm-anchor-id="a313x.7781069.0.i44" xmlns:xlink="http://www.w3.org/1999/xlink"><path d="M176 32 176 896c0 26.432-21.568 48-48 48-26.496 0-48-21.568-48-48L80 512 32 512l0 384c0 52.992 42.944 96 96 96l864 0 0-960L176 32zM944 944 210.688 944C218.944 929.856 224 913.6 224 896L224 80l720 0L944 944z" fill="#8a8a8a" p-id="55871"></path><path d="M512 176 272 176 272 416 512 416 512 176zM464 368 320 368 320 224l144 0L464 368z" fill="#d4237a" p-id="55872" data-spm-anchor-id="a313x.7781069.0.i41" class="selected"></path><path d="M560 176l336 0 0 48-336 0 0-48Z" fill="#8a8a8a" p-id="55873"></path><path d="M560 320l336 0 0 48-336 0 0-48Z" fill="#d4237a" p-id="55874" data-spm-anchor-id="a313x.7781069.0.i45" class="selected"></path><path d="M272 464l624 0 0 48-624 0 0-48Z" fill="#8a8a8a" p-id="55875"></path><path d="M272 656l624 0 0 48-624 0 0-48Z" fill="#8a8a8a" p-id="55876" data-spm-anchor-id="a313x.7781069.0.i43" class="selected"></path><path d="M272 800l288 0 0 48-288 0 0-48Z" fill="#8a8a8a" p-id="55877"></path></svg>