<?xml version="1.0" standalone="no"?><!DOCTYPE svg PUBLIC "-//W3C//DTD SVG 1.1//EN" "http://www.w3.org/Graphics/SVG/1.1/DTD/svg11.dtd"><svg t="1673857715884" class="icon" viewBox="0 0 1024 1024" version="1.1" xmlns="http://www.w3.org/2000/svg" p-id="50088" width="256" height="256" xmlns:xlink="http://www.w3.org/1999/xlink"><path d="M1021.215596 137.750661V880.452572c-23.924571 78.014907-74.114161 126.124099-156.029813 138.866534H159.801002C65.79304 1000.595528 3.901214 936.363255 3.511139 851.977131q-1.690323-343.265589 0-686.531179A170.202521 170.202521 0 0 1 173.583636 0.184375C400.346964 0.184375 626.720218-0.855824 853.743597 2.004723 886.769907 2.394798 921.876615 18.387853 951.782329 35.031034c39.007453 21.454099 55.780658 61.891826 69.433267 102.719627zM799.003137 551.749765C750.76392 546.288722 743.742578 568.913045 742.052255 599.598908c-1.950373 41.087851-6.111168 82.175702-9.361789 125.34395h-67.742943c-79.44518-1.430273-66.312671 4.55087-68.653118 61.891826 0 1.690323-1.950373 3.380646-3.250621 5.461043h-210.640248c-21.974199-69.563292-41.737975-134.575714-63.582149-199.328086a89.197043 89.197043 0 0 0-20.283876-34.586609 34.976683 34.976683 0 0 0-28.345416-7.541441c-4.680894 1.170224-7.151366 16.64318-7.671466 26.004969 0 5.461043 5.331019 11.052112 7.801491 16.773205 28.475441 67.742944 57.080907 135.615913 59.811428 210.640248 0.780149 22.884373 8.58164 33.54641 33.54641 33.156335 70.733515-1.300248 141.337006 0 212.070521 0 60.201503 0 60.201503 0 65.012422-60.331528a49.799515 49.799515 0 0 1 3.640696-9.101739c29.385615 0 60.331528-1.430273 91.017391 0 26.004969 1.560298 37.707205-7.801491 39.007454-34.586608 2.340447-46.288845 7.281391-92.447664 11.312161-139.906733h24.444671c46.15882 0 52.009938-10.662037 29.125565-50.579664-3.640696-6.371217-7.931516-13.002484-11.052112-18.853603-14.432758-30.555838-36.927056-60.201503-41.477925-92.317639C767.797174 294.560623 665.727672 193.141244 527.901337 184.559605c-11.832261 0-33.02631 9.881888-34.976684 18.593552-4.940944 21.974199 15.082882 20.934 31.075938 22.494298 104.800025 9.881888 186.195577 72.423838 210.770273 170.462571 13.132509 52.269987 21.974199 104.930049 64.232273 155.639739zM533.882479 309.25343c-1.950373-21.324074-16.123081-40.047652-44.208447-52.009937-14.172708-6.111168-25.22482-24.184621-33.28636-39.007454-16.513155-30.815888-79.055105-48.369242-109.220869-31.335987a122.353379 122.353379 0 0 1-57.731031 18.463528 85.686372 85.686372 0 0 0-86.596546 83.735999 67.482894 67.482894 0 0 1-10.662038 44.078423 75.15436 75.15436 0 0 0-0.780149 102.589602 685.360955 685.360955 0 0 0 89.847168 91.017391 75.15436 75.15436 0 0 0 100.37918 0c10.401988-9.231764 31.335987-7.021342 47.589093-9.101739 9.101739-1.170224 20.413901 2.990571 27.305217-1.170224 29.645665-17.423329 49.669491 1.820348 66.962795 18.723578 34.196534 33.416385 60.071478 37.57718 98.818882 10.792062a71.513664 71.513664 0 0 1 26.004968-10.271963c43.428298-8.711665 62.54195-34.846658 57.470982-78.014906a73.464037 73.464037 0 0 1 4.03077-30.295789c13.002484-40.177677 0.780149-68.913168-37.31713-87.246671a222.472509 222.472509 0 0 1-30.945913-24.96477C632.181262 309.123406 622.299374 299.241517 613.717734 299.241517a728.139129 728.139129 0 0 0-79.835255 10.011913z" fill="#29B2BB" p-id="50089"></path><path d="M865.315808 1019.319106a28.215391 28.215391 0 0 1 0 4.680894H159.931027v-4.680894z" fill="#E9F4F5" p-id="50090"></path><path d="M390.075002 200.422636c13.782634 11.572211 28.345416 22.624323 41.477925 35.236732a581.601129 581.601129 0 0 0 52.009938 52.009938c28.735491 21.324074 34.586609 43.688348 19.763776 75.544435a212.85067 212.85067 0 0 0-18.333503 68.002993c-3.510671 36.406956-20.934 53.700261-57.470981 57.340957A237.945465 237.945465 0 0 0 356.528592 507.281268c-31.856087 14.042683-53.700261 7.411416-74.504236-21.974198a239.505763 239.505763 0 0 0-52.009938-52.009938A54.610435 54.610435 0 0 1 210.640716 360.353194a221.042235 221.042235 0 0 0 19.243677-67.872969c4.160795-40.697776 20.153851-56.300758 61.371727-60.071478a349.506782 349.506782 0 0 0 68.393068-18.073453 312.059627 312.059627 0 0 0 30.425814-13.912658zM280.594083 364.25394a78.014907 78.014907 0 0 0 81.005478 77.234757 79.055105 79.055105 0 0 0-3.380646-158.110211A78.665031 78.665031 0 0 0 280.594083 364.25394zM501.116219 491.808312c3.77072-22.884373 6.761292-43.558323 10.532012-64.102248 8.06154-44.078422 25.094795-83.866025 65.012422-107.270497a52.009938 52.009938 0 0 1 41.998025 4.420845 226.373254 226.373254 0 0 1 55.910683 41.868A67.612919 67.612919 0 0 1 691.73264 407.552213c1.170224 21.19405-5.591068 42.648149-6.631267 63.972223S676.649759 507.281268 652.725187 513.132386a211.550422 211.550422 0 0 0-53.180161 23.144423 37.057081 37.057081 0 0 1-52.009938-5.981143 496.044781 496.044781 0 0 0-46.418869-38.487354z m83.47595-4.420845a58.121105 58.121105 0 0 0 60.331528-57.340956 60.461553 60.461553 0 0 0-59.03128-59.551379 58.121105 58.121105 0 0 0-57.861056 56.690832 55.910683 55.910683 0 0 0 56.560808 60.201503z" fill="#2EB3BD" p-id="50091"></path><path d="M581.991672 469.574063c26.004969 0 47.459068-20.023826 44.988596-41.217875a41.868 41.868 0 0 0-40.567751-39.917627 40.567751 40.567751 0 0 0-40.437727 42.128049 37.447155 37.447155 0 0 0 36.016882 39.007453z" fill="#E9F4F5" p-id="50092"></path><path d="M411.399076 362.173542a52.920112 52.920112 0 0 1-52.009938 54.090335 53.570236 53.570236 0 0 1-1.170223-107.010447 52.009938 52.009938 0 0 1 53.180161 52.920112zM581.991672 469.574063a37.447155 37.447155 0 0 1-36.016882-39.007453 40.567751 40.567751 0 0 1 40.437727-42.128049 41.868 41.868 0 0 1 40.307701 39.917627c2.730522 21.19405-18.723578 41.217876-44.728546 41.217875z" fill="#2EB3BD" p-id="50093"></path></svg>